<svg width="271" height="207" viewBox="0 0 271 207" fill="none" xmlns="http://www.w3.org/2000/svg">
<path d="M128.822 112.375L94.353 28.5006C59.5449 30.4207 39.7866 24.2033 4.15964 1.5C13.6683 32.3705 13.6719 47.3307 1 68.4269C21.5662 95.8819 26.5373 110.298 27.1388 134.779C58.1464 152.531 71.5023 164.934 82.5762 194.813L128.822 206.589V112.375Z" fill="#CF0E0E"/>
<path d="M128.822 206.589H145.482V112.375C139.632 90.7002 138.933 74.918 138.013 46.3094C136.68 75.08 135.707 90.9144 128.822 112.375V206.589Z" fill="black"/>
<path d="M145.482 112.375V206.589L190.578 194.813C201.366 165.707 214.331 151.493 244.537 134.2C245.123 110.352 249.965 96.3081 270 69.5627C257.656 49.0117 257.659 34.4382 266.922 4.36555C232.216 26.4821 212.968 32.5388 179.06 30.6683L145.482 112.375Z" fill="url(#paint0_linear_1_4)"/>
<path d="M128.822 112.375L94.353 28.5006C59.5449 30.4207 39.7866 24.2033 4.15964 1.5C13.6683 32.3705 13.6719 47.3307 1 68.4269C21.5662 95.8819 26.5373 110.298 27.1388 134.779C58.1464 152.531 71.5023 164.934 82.5762 194.813L128.822 206.589M128.822 112.375C135.707 90.9144 136.68 75.08 138.013 46.3094C138.933 74.918 139.632 90.7002 145.482 112.375M128.822 112.375V206.589M128.822 206.589H145.482M145.482 206.589V112.375M145.482 206.589L190.578 194.813C201.366 165.707 214.331 151.493 244.537 134.2C245.123 110.352 249.965 96.3081 270 69.5627C257.656 49.0117 257.659 34.4382 266.922 4.36555C232.216 26.4821 212.968 32.5388 179.06 30.6683L145.482 112.375" stroke="black" stroke-width="0.57448"/>
<defs>
<linearGradient id="paint0_linear_1_4" x1="204.079" y1="122.141" x2="70.5121" y2="369.167" gradientUnits="userSpaceOnUse">
<stop/>
<stop offset="1" stop-color="#666666"/>
</linearGradient>
</defs>
</svg>
